<svg id="Dribbble" xmlns="http://www.w3.org/2000/svg" width="36.394" height="36.394" viewBox="0 0 36.394 36.394">
  <path id="Background" d="M18.2,0A18.2,18.2,0,1,1,0,18.2,18.2,18.2,0,0,1,18.2,0" fill="#eee"/>
  <path id="Dribbble_Icon" data-name="Dribbble Icon" d="M9.5,19A9.5,9.5,0,1,1,19,9.5,9.511,9.511,0,0,1,9.5,19Zm1.439-8.172-.027.01-.027.009A11.07,11.07,0,0,0,4.52,15.913a8.1,8.1,0,0,0,8.15,1.069A33.629,33.629,0,0,0,10.939,10.828Zm3.207-.506h-.025a10.709,10.709,0,0,0-1.664.129,35.453,35.453,0,0,1,1.576,5.785A8.154,8.154,0,0,0,17.511,10.8,11.491,11.491,0,0,0,14.146,10.323ZM1.389,9.265c0,.082,0,.165,0,.247a8.1,8.1,0,0,0,2.086,5.426,12.87,12.87,0,0,1,6.6-5.354c.1-.032.188-.059.294-.09l.026-.008c-.2-.444-.418-.908-.658-1.377A30.153,30.153,0,0,1,1.639,9.267C1.514,9.267,1.429,9.266,1.389,9.265Zm12.44-.2a19.852,19.852,0,0,1,3.783.372,8.127,8.127,0,0,0-1.832-5.055,10.929,10.929,0,0,1-4.531,3.2c.2.4.376.794.539,1.176.06.14.117.278.175.417A15.339,15.339,0,0,1,13.83,9.064Zm-7.78-6.9A8.164,8.164,0,0,0,1.557,7.85H1.7a30.311,30.311,0,0,0,7.354-.99A51.584,51.584,0,0,0,6.05,2.168ZM9.5,1.4a8.1,8.1,0,0,0-1.9.226l0,0a43.543,43.543,0,0,1,3.023,4.747,9.183,9.183,0,0,0,4.253-2.932A8.1,8.1,0,0,0,9.5,1.4Z" transform="translate(9.537 8.454)" fill="#656b6f"/>
</svg>
