<svg xmlns="http://www.w3.org/2000/svg" width="36" height="36" viewBox="0 0 36 36">
  <g id="Twitter" transform="translate(-0.127 0.287)">
    <circle id="Background" cx="18" cy="18" r="18" transform="translate(0.127 -0.287)" fill="#eee"/>
    <path id="Twitter_Icon" data-name="Twitter Icon" d="M11.758,1.6h0A2.257,2.257,0,0,0,9.779.914h0A2.241,2.241,0,0,0,10.943.457c0-.114,0-.229-.116-.229A2.226,2.226,0,0,0,9.9.457c.349-.229.466-.343.466-.457A2.188,2.188,0,0,0,9.2.572c.116-.229.233-.343.116-.457a.9.9,0,0,0-.466.457,2.4,2.4,0,0,0-.7.914h0A9.991,9.991,0,0,0,7.1,3.772H6.985a2.732,2.732,0,0,0-1.048-.914,11.938,11.938,0,0,0-1.746-.914,12.744,12.744,0,0,0-2.212-.914A2.115,2.115,0,0,0,3.143,2.972h0a2.015,2.015,0,0,0-.815.114c0,.686.582,1.257,1.63,1.486h0a1.9,1.9,0,0,0-1.048.343,1.8,1.8,0,0,0,1.863.914,1.678,1.678,0,0,1-.349.229.5.5,0,0,0-.116.572c.233.343.466.457,1.048.457h0A3.748,3.748,0,0,1,2.328,8.23h0A3.786,3.786,0,0,1,0,7.2,7.7,7.7,0,0,0,3.376,9.831a8.5,8.5,0,0,0,4.773.114h0a8.317,8.317,0,0,0,3.958-2.629,5.392,5.392,0,0,0,.931-2.058,2.061,2.061,0,0,0,1.746-.686h0a2.791,2.791,0,0,1-1.63-.114h0c.815-.114,1.4-.343,1.513-.8a2.309,2.309,0,0,1-1.746,0A3.123,3.123,0,0,0,11.758,1.6Z" transform="translate(10.684 12.907)" fill="#656b6f"/>
  </g>
</svg>
